<svg width="162" height="68" viewBox="0 0 162 68" fill="none" xmlns="http://www.w3.org/2000/svg">
<g filter="url(#filter0_d_354_628)">
<path d="M25.8897 9.94424L15.8668 17.1706C14.5634 18.1104 13.791 19.6194 13.791 21.2264V45.0858C13.791 47.8472 16.0296 50.0858 18.791 50.0858H133.532C134.463 50.0858 135.376 49.8259 136.167 49.3352L145.844 43.3352C147.314 42.4234 148.209 40.816 148.209 39.0857V14C148.209 11.2386 145.97 9 143.209 9H28.8138C27.7642 9 26.7411 9.33035 25.8897 9.94424Z" fill="white" fill-opacity="0.1" shape-rendering="crispEdges"/>
<path d="M25.8897 9.94424L15.8668 17.1706C14.5634 18.1104 13.791 19.6194 13.791 21.2264V45.0858C13.791 47.8472 16.0296 50.0858 18.791 50.0858H133.532C134.463 50.0858 135.376 49.8259 136.167 49.3352L145.844 43.3352C147.314 42.4234 148.209 40.816 148.209 39.0857V14C148.209 11.2386 145.97 9 143.209 9H28.8138C27.7642 9 26.7411 9.33035 25.8897 9.94424Z" stroke="#8D9DF7" stroke-width="2" shape-rendering="crispEdges"/>
</g>
<path d="M45.1893 24.64H46.8373L49.4773 33.728L52.1173 24.64H53.7493L50.3093 36H48.6293L45.1893 24.64ZM55.5643 34.544H58.1243V26.096H55.5643V24.64H62.3163V26.096H59.7723V34.544H62.3163V36H55.5643V34.544ZM64.3143 24.64H71.7063V26.096H65.9463V29.584H71.2263V31.056H65.9463V34.544H71.7063V36H64.3143V24.64ZM73.7049 24.64H75.3529L75.9449 32.88L77.6089 28.432H78.4089L80.0729 32.864L80.6649 24.64H82.3129L81.4169 36H79.8329L78.0089 30.976L76.1689 36H74.6009L73.7049 24.64ZM89.1268 36L92.4868 24.64H94.1028L97.4628 36H95.8308L95.2708 34.032H91.3188L90.7588 36H89.1268ZM91.7348 32.576H94.8548L93.3028 27.104L91.7348 32.576ZM99.4705 36V24.64H101.103V34.544H106.943V36H99.4705ZM108.924 36V24.64H110.556V34.544H116.396V36H108.924Z" fill="#8D9DF7"/>
<defs>
<filter id="filter0_d_354_628" x="0.791016" y="0" width="160.418" height="67.0859" filterUnits="userSpaceOnUse" color-interpolation-filters="sRGB">
<feFlood flood-opacity="0" result="BackgroundImageFix"/>
<feColorMatrix in="SourceAlpha" type="matrix" values="0 0 0 0 0 0 0 0 0 0 0 0 0 0 0 0 0 0 127 0" result="hardAlpha"/>
<feOffset dy="4"/>
<feGaussianBlur stdDeviation="6"/>
<feComposite in2="hardAlpha" operator="out"/>
<feColorMatrix type="matrix" values="0 0 0 0 0 0 0 0 0 0 0 0 0 0 0 0 0 0 0.15 0"/>
<feBlend mode="normal" in2="BackgroundImageFix" result="effect1_dropShadow_354_628"/>
<feBlend mode="normal" in="SourceGraphic" in2="effect1_dropShadow_354_628" result="shape"/>
</filter>
</defs>
</svg>
