<svg width="40" height="40" viewBox="0 0 40 40" fill="none" xmlns="http://www.w3.org/2000/svg">
<rect x="39.5" y="0.5" width="39" height="39" rx="19.5" transform="rotate(90 39.5 0.5)" fill="white" fill-opacity="0.1"/>
<path d="M20.8764 10.8612L20.7274 10.7067L20.5838 10.8662L19.7397 11.8036L19.6099 11.9477L19.7499 12.0818L25.0574 17.1684L25.0975 17.2069L25.1517 17.2191C25.9816 17.4068 26.4562 17.6705 26.7162 17.9379C26.9689 18.1979 27.032 18.4748 27.0089 18.7357C26.9851 19.0054 26.8678 19.2635 26.7486 19.4609C26.6899 19.5582 26.6328 19.6375 26.5907 19.692C26.5867 19.697 26.583 19.7019 26.5793 19.7065L9.0003 19.68L8.8 19.6797V19.88V21.1264V21.3263L8.99989 21.3264L26.5999 21.3359C26.9598 21.9084 27.0421 22.3355 26.9945 22.6499C26.9449 22.9774 26.7479 23.2239 26.4838 23.4127C26.2178 23.6028 25.8969 23.7239 25.6355 23.7975C25.5061 23.8339 25.3941 23.8578 25.3149 23.8726C25.2754 23.88 25.2442 23.8851 25.2234 23.8883L25.2 23.8916L25.1946 23.8924L25.1937 23.8925L25.1936 23.8925L25.1936 23.8925L25.1935 23.8925L25.1282 23.9005L25.0803 23.9459L19.7686 28.9846L19.6234 29.1223L19.7612 29.2674L20.5874 30.1377L20.7296 30.2876L20.8748 30.1405L30.1423 20.7502L30.2794 20.6113L30.144 20.4709L20.8764 10.8612Z" fill="#8D9DF7" stroke="#8D9DF7" stroke-width="0.4" stroke-miterlimit="10"/>
<rect x="39.5" y="0.5" width="39" height="39" rx="19.5" transform="rotate(90 39.5 0.5)" stroke="#8D9DF7"/>
</svg>
