<svg width="26" height="16" viewBox="0 0 26 16" fill="none" xmlns="http://www.w3.org/2000/svg">
<path d="M7.7013 0C8.43159 0 9.10702 0.0571427 9.72416 0.226285C10.3424 0.339428 10.8487 0.565713 11.2979 0.847998C11.7482 1.13143 12.0853 1.52685 12.3093 2.03542C12.5344 2.544 12.6476 3.16685 12.6476 3.84456C12.6476 4.63656 12.4784 5.31428 12.0853 5.82285C11.7482 6.33256 11.1859 6.78399 10.5116 7.12342C11.467 7.40684 12.1973 7.91541 12.6476 8.59427C13.0967 9.27198 13.3779 10.12 13.3779 11.0811C13.3779 11.8731 13.2087 12.5508 12.9276 13.1165C12.6476 13.6823 12.1973 14.1908 11.691 14.5303C11.141 14.8941 10.5331 15.1615 9.8933 15.3211C9.21902 15.4914 8.54473 15.6045 7.87045 15.6045H0.337891V0H7.7013ZM7.25102 6.33142C7.8693 6.33142 8.37559 6.16227 8.76873 5.87999C9.16187 5.5977 9.33102 5.08799 9.33102 4.46628C9.33102 4.12685 9.27387 3.78856 9.16187 3.56228C9.04987 3.33599 8.88073 3.16571 8.65673 2.99657C8.43159 2.88342 8.20645 2.77028 7.9253 2.71428C7.64416 2.65714 7.36416 2.65714 7.02588 2.65714H3.76646V6.33256H7.25216L7.25102 6.33142ZM7.42016 13.0034C7.7573 13.0034 8.09445 12.9463 8.37559 12.8903C8.65673 12.8331 8.93787 12.7211 9.16187 12.5508C9.39088 12.3854 9.58247 12.1735 9.72416 11.9291C9.83616 11.6468 9.9493 11.3074 9.9493 10.912C9.9493 10.12 9.72416 9.55427 9.27502 9.15884C8.82473 8.81941 8.20645 8.65027 7.47616 8.65027H3.76646V13.0045L7.42016 13.0034ZM18.2681 12.9463C18.7173 13.3988 19.3916 13.6251 20.291 13.6251C20.9093 13.6251 21.4716 13.456 21.9207 13.1737C22.371 12.8343 22.6521 12.4948 22.7641 12.1565H25.5184C25.0681 13.512 24.3938 14.4731 23.4956 15.096C22.595 15.6605 21.5276 16 20.235 16C19.408 16.0025 18.5879 15.849 17.8179 15.5474C17.1249 15.2875 16.507 14.8604 16.019 14.304C15.4971 13.7835 15.1112 13.1425 14.8956 12.4377C14.6144 11.7028 14.5013 10.912 14.5013 10.0068C14.5013 9.15884 14.6144 8.36798 14.8956 7.63199C15.1664 6.92383 15.5667 6.27234 16.0761 5.71085C16.5894 5.18381 17.1999 4.76117 17.8739 4.46628C18.6244 4.16463 19.4261 4.01096 20.235 4.01371C21.1904 4.01371 22.0338 4.18399 22.7641 4.57942C23.4956 4.97485 24.0567 5.42742 24.5058 6.10627C24.9561 6.72799 25.2944 7.46284 25.5184 8.25484C25.6304 9.0457 25.6864 9.8377 25.6304 10.7417H17.4807C17.4807 11.6468 17.8179 12.4948 18.2681 12.9474V12.9463ZM21.8087 7.01027C21.4156 6.61484 20.7973 6.38856 20.0659 6.38856C19.5607 6.38856 19.1664 6.50284 18.8293 6.67199C18.4921 6.84113 18.2681 7.06742 18.043 7.2937C17.8357 7.51217 17.6985 7.78756 17.6487 8.08456C17.5927 8.36798 17.5367 8.59427 17.5367 8.81941H22.595C22.483 7.97141 22.2018 7.40684 21.8087 7.01027ZM16.8624 1.07428H23.1573V2.60114H16.8636V1.07428H16.8624Z" fill="white"/>
</svg>
