<svg width="21" height="18" viewBox="0 0 21 18" fill="none" xmlns="http://www.w3.org/2000/svg">
<path d="M19.6299 0.692474L20.3078 0.646782C20.299 0.510869 20.2511 0.380627 20.1702 0.272362C20.0893 0.164097 19.9788 0.0826189 19.8528 0.0381293C19.7267 -0.0063603 19.5906 -0.0118847 19.4615 0.0222476C19.3324 0.05638 19.216 0.128652 19.1269 0.230017L19.6299 0.692474ZM18.9547 4.78951C18.9547 4.6059 18.8833 4.42981 18.7562 4.29998C18.629 4.17015 18.4566 4.09721 18.2768 4.09721C18.097 4.09721 17.9246 4.17015 17.7975 4.29998C17.6703 4.42981 17.5989 4.6059 17.5989 4.78951H18.9547ZM0.678724 15.9231V15.2308C0.533165 15.2306 0.391415 15.2783 0.274443 15.3668C0.15747 15.4552 0.0714884 15.5798 0.0292163 15.722C-0.0130557 15.8643 -0.00937262 16.0166 0.0397208 16.1566C0.0888143 16.2965 0.180711 16.4166 0.301815 16.4991L0.678724 15.9231ZM2.0318 0.692474L2.66766 0.450169C2.62145 0.323765 2.54008 0.213906 2.43356 0.134097C2.32703 0.0542889 2.19999 0.0080094 2.06806 0.000948788C1.93612 -0.00611182 1.80504 0.0263542 1.69093 0.0943553C1.57682 0.162356 1.48465 0.262929 1.42576 0.383707L2.0318 0.692474ZM7.4468 13.1539L7.92675 13.6427C8.00818 13.5592 8.06742 13.456 8.09886 13.3426C8.13031 13.2293 8.13292 13.1097 8.10645 12.995C8.07998 12.8804 8.0253 12.7745 7.9476 12.6875C7.86989 12.6004 7.77172 12.5351 7.66237 12.4976L7.4468 13.1539ZM17.241 2.03969L16.7394 2.50492L16.9834 2.78045L17.3427 2.72507L17.241 2.03969ZM18.9547 0.738166C19.0239 1.81539 18.9588 2.46892 18.7879 2.96184C18.6225 3.43952 18.3324 3.83275 17.8077 4.34644L18.7459 5.34612C19.3398 4.76459 19.798 4.19413 20.0665 3.42429C20.3281 2.6683 20.3824 1.79323 20.3078 0.646782L18.9547 0.738166ZM18.9547 5.7975V4.78951H17.5989V5.79889H18.9547V5.7975ZM9.47777 4.90305V6.23088H10.8336V4.90305H9.47777ZM9.47777 6.23088V6.92318H10.8336V6.23088H9.47777ZM14.2705 0.000172853C13.6404 0.000536407 13.0165 0.127641 12.4345 0.374231C11.8525 0.62082 11.3238 0.982064 10.8785 1.43734C10.4332 1.89261 10.0801 2.433 9.83926 3.02765C9.59846 3.6223 9.4747 4.25956 9.47506 4.90305H10.8308C10.8305 4.44127 10.9192 3.98394 11.092 3.55719C11.2647 3.13044 11.5181 2.74263 11.8376 2.41591C12.1572 2.08919 12.5366 1.82996 12.9543 1.65304C13.372 1.47611 13.8197 1.38496 14.2718 1.38477V0.000172853H14.2705ZM17.5976 5.7975C17.5989 11.7734 12.8632 16.6154 7.0238 16.6154V18C13.6129 18 18.9547 12.5364 18.9547 5.7975H17.5976ZM1.39729 0.934779C2.13484 2.94522 4.90064 6.92318 10.1557 6.92318V5.53858C5.65988 5.53858 3.28319 2.13246 2.6663 0.450169L1.39729 0.934779ZM1.42576 0.383707C0.00625381 3.28583 -0.212027 6.10211 0.819725 8.50024C1.84877 10.8915 4.06276 12.7302 7.23259 13.8102L7.66237 12.4976C4.74066 11.5007 2.89272 9.87792 2.06027 7.94225C1.23053 6.0135 1.35119 3.63614 2.63919 1.00124L1.42576 0.383707ZM6.96686 12.6651C6.15067 13.5 3.6967 15.2308 0.678724 15.2308V16.6154C4.15767 16.6154 6.93838 14.6548 7.92675 13.6427L6.96686 12.6651ZM17.744 1.57585C17.3057 1.0794 16.77 0.682592 16.1719 0.411146C15.5737 0.1397 14.9264 -0.00031763 14.2718 0.000172853V1.38477C15.2493 1.38477 16.1293 1.81539 16.7394 2.50492L17.744 1.57585ZM17.3427 2.72507C18.4226 2.54488 19.4089 1.99042 20.1356 1.15493L19.1269 0.230017C18.61 0.826419 17.9084 1.22375 17.1393 1.3557L17.3427 2.72507ZM0.301815 16.4991C2.52666 18.0138 4.85861 18 7.0238 18V16.6154C4.81387 16.6154 2.89137 16.6002 1.05563 15.3471L0.301815 16.4991Z" fill="white"/>
</svg>
