<svg width="21" height="22" viewBox="0 0 21 22" fill="none" xmlns="http://www.w3.org/2000/svg">
<path d="M10.3379 7.93784C9.54224 7.93784 8.77918 8.26063 8.21657 8.8352C7.65396 9.40976 7.33789 10.189 7.33789 11.0016C7.33789 11.8142 7.65396 12.5934 8.21657 13.168C8.77918 13.7426 9.54224 14.0654 10.3379 14.0654C11.1335 14.0654 11.8966 13.7426 12.4592 13.168C13.0218 12.5934 13.3379 11.8142 13.3379 11.0016C13.3379 10.189 13.0218 9.40976 12.4592 8.8352C11.8966 8.26063 11.1335 7.93784 10.3379 7.93784ZM10.3379 5.89533C11.664 5.89533 12.9357 6.43331 13.8734 7.39093C14.8111 8.34854 15.3379 9.64734 15.3379 11.0016C15.3379 12.3559 14.8111 13.6547 13.8734 14.6123C12.9357 15.5699 11.664 16.1079 10.3379 16.1079C9.01181 16.1079 7.74004 15.5699 6.80236 14.6123C5.86468 13.6547 5.33789 12.3559 5.33789 11.0016C5.33789 9.64734 5.86468 8.34854 6.80236 7.39093C7.74004 6.43331 9.01181 5.89533 10.3379 5.89533ZM16.8379 5.64002C16.8379 5.97859 16.7062 6.30329 16.4718 6.54269C16.2374 6.78209 15.9194 6.91659 15.5879 6.91659C15.2564 6.91659 14.9384 6.78209 14.704 6.54269C14.4696 6.30329 14.3379 5.97859 14.3379 5.64002C14.3379 5.30145 14.4696 4.97675 14.704 4.73735C14.9384 4.49795 15.2564 4.36345 15.5879 4.36345C15.9194 4.36345 16.2374 4.49795 16.4718 4.73735C16.7062 4.97675 16.8379 5.30145 16.8379 5.64002ZM10.3379 2.83157C7.86389 2.83157 7.45989 2.83872 6.30889 2.8908C5.52489 2.92859 4.99889 3.03582 4.51089 3.22986C4.10251 3.38298 3.7333 3.62842 3.43089 3.9478C3.1179 4.25663 2.87724 4.63366 2.72689 5.05076C2.53689 5.55117 2.43189 6.08733 2.39589 6.88697C2.34389 8.01444 2.33689 8.40864 2.33689 11.0016C2.33689 13.5292 2.34389 13.9408 2.39489 15.1162C2.43189 15.9159 2.53689 16.4541 2.72589 16.9514C2.89589 17.3957 3.09589 17.7153 3.42789 18.0544C3.76489 18.3975 4.07789 18.6028 4.50789 18.7723C5.00189 18.9674 5.52789 19.0756 6.30789 19.1124C7.41189 19.1655 7.79789 19.1716 10.3369 19.1716C12.8119 19.1716 13.2149 19.1645 14.3659 19.1124C15.1479 19.0746 15.6739 18.9674 16.1629 18.7744C16.5709 18.6205 16.94 18.3752 17.2429 18.0564C17.5799 17.7133 17.7809 17.3936 17.9469 16.9535C18.1369 16.451 18.2429 15.9138 18.2789 15.1152C18.3309 13.9888 18.3369 13.5935 18.3369 11.0016C18.3369 8.47502 18.3299 8.06244 18.2789 6.88697C18.2419 6.08835 18.1359 5.54913 17.9469 5.05076C17.7962 4.6341 17.5559 4.25722 17.2439 3.9478C16.9416 3.62799 16.5724 3.3822 16.1639 3.22884C15.6739 3.0348 15.1479 2.92757 14.3659 2.8908C13.2629 2.8377 12.8779 2.83157 10.3379 2.83157ZM10.3379 0.789062C13.0549 0.789062 13.3939 0.799275 14.4609 0.850338C15.5249 0.9014 16.2509 1.07195 16.8879 1.32522C17.5479 1.58462 18.1039 1.93593 18.6599 2.50273C19.1684 3.01325 19.5618 3.63079 19.8129 4.31239C20.0599 4.96293 20.2279 5.70436 20.2779 6.792C20.3249 7.88065 20.3379 8.22686 20.3379 11.0016C20.3379 13.7764 20.3279 14.1226 20.2779 15.2112C20.2279 16.2989 20.0599 17.0393 19.8129 17.6908C19.5625 18.3728 19.169 18.9905 18.6599 19.5005C18.1599 20.0196 17.5552 20.4214 16.8879 20.678C16.2509 20.9302 15.5249 21.1018 14.4609 21.1529C13.3939 21.2009 13.0549 21.2141 10.3379 21.2141C7.62089 21.2141 7.28189 21.2039 6.21489 21.1529C5.15089 21.1018 4.42589 20.9302 3.78789 20.678C3.12022 20.4221 2.51542 20.0202 2.01589 19.5005C1.50732 18.99 1.11385 18.3725 0.862891 17.6908C0.614891 17.0403 0.447891 16.2989 0.397891 15.2112C0.349891 14.1226 0.337891 13.7764 0.337891 11.0016C0.337891 8.22686 0.347891 7.88065 0.397891 6.792C0.447891 5.70334 0.614891 4.96395 0.862891 4.31239C1.11313 3.63038 1.50669 3.01266 2.01589 2.50273C2.51556 1.98314 3.12032 1.58128 3.78789 1.32522C4.42489 1.07195 5.14989 0.9014 6.21489 0.850338C7.28189 0.802339 7.62089 0.789062 10.3379 0.789062Z" fill="white"/>
</svg>
